PathFileType	3	(X/Y/Z)	running_1__fused_aligned.trc
DataRate	CameraRate	NumFrames	NumMarkers	Units	OrigDataRate	OrigDataStartFrame	OrigNumFrames
100.0	100.0	15	19	mm	100.0	1043	6379
Frame#	Time	pelvis			neck			head			hip_left			hip_right			knee_left			knee_right			ankle_left			ankle_right			heel_left			heel_right			toe_left			toe_right			shoulder_left			shoulder_right			elbow_left			elbow_right			wrist_left			wrist_right			
		X1	Y1	Z1	X2	Y2	Z2	X3	Y3	Z3	X4	Y4	Z4	X5	Y5	Z5	X6	Y6	Z6	X7	Y7	Z7	X8	Y8	Z8	X9	Y9	Z9	X10	Y10	Z10	X11	Y11	Z11	X12	Y12	Z12	X13	Y13	Z13	X14	Y14	Z14	X15	Y15	Z15	X16	Y16	Z16	X17	Y17	Z17	X18	Y18	Z18	X19	Y19	Z19	
1043	10.42000	15.164847	932.100254	172.464997	-0.686754	1473.420566	313.991528	7.141648	1544.148757	465.154791	91.443088	934.352695	173.230729	-61.113237	929.847790	171.699282	88.972765	519.048830	270.868031	-118.286678	524.277552	285.075069	67.020954	130.440766	145.475680	-157.788978	249.614596	25.939501	61.439548	87.194696	105.838319	-156.120770	238.646850	-23.381098	64.132814	58.443966	315.702541	-174.086393	103.955099	98.152079	165.519684	1450.948667	267.416090	-166.520165	1432.872696	265.628519	245.702965	1216.797502	160.813102	-244.179181	1195.400818	151.467932	168.751532	1123.495439	340.754135	-193.603200	1067.123768	322.646400
1044	10.43000	15.291508	931.979241	174.033201	-1.546116	1473.682565	315.503147	5.202782	1544.483883	466.619512	91.598389	934.271596	174.871507	-61.015227	929.686866	173.194912	88.439118	517.334538	264.555380	-117.269120	525.375826	292.410871	65.703704	130.800193	135.539011	-157.474443	248.257757	39.845213	59.885521	88.400322	95.646332	-156.056068	236.480251	-8.823771	62.697910	56.482073	302.679629	-173.387859	105.356564	114.003365	165.503135	1450.784988	271.004220	-166.927498	1433.884978	265.109965	247.477979	1214.820956	168.672257	-245.549609	1198.308337	147.064502	163.992175	1125.820066	350.579106	-198.775512	1064.514108	315.784912
1045	10.44000	15.418169	931.858227	175.601405	-2.405478	1473.944563	317.014766	3.263916	1544.819010	468.084234	91.753691	934.190496	176.512285	-60.917218	929.525942	174.690542	87.905470	515.620246	258.242730	-116.251562	526.474100	299.746673	64.386455	131.159619	125.602342	-157.159907	246.900919	53.750925	58.331493	89.605948	85.454346	-155.991366	234.313651	5.733556	61.263006	54.520180	289.656716	-172.689326	106.758028	129.854650	165.486586	1450.621309	274.592349	-167.334832	1434.897260	264.591411	249.252994	1212.844411	176.531411	-246.920036	1201.215857	142.661072	159.232818	1128.144693	360.404077	-203.947825	1061.904448	308.923424
1046	10.45000	15.544830	931.737213	177.169609	-3.264840	1474.206561	318.526385	1.325051	1545.154136	469.548956	91.908993	934.109396	178.153063	-60.819208	929.365018	176.186172	87.371823	513.905953	251.930079	-115.234004	527.572374	307.082475	63.069206	131.519046	115.665673	-156.845372	245.544080	67.656637	56.777466	90.811574	75.262360	-155.926663	232.147051	20.290883	59.828102	52.558286	276.633804	-171.990793	108.159493	145.705936	165.470037	1450.457630	278.180479	-167.742165	1435.909542	264.072856	251.028008	1210.867865	184.390566	-248.290464	1204.123377	138.257642	154.473461	1130.469321	370.229049	-209.120138	1059.294789	302.061936
1047	10.46000	14.347949	930.701569	177.973155	-5.832584	1473.154715	319.527348	-2.549760	1544.155217	470.701441	90.775469	933.119754	179.016942	-62.079499	928.283372	176.929399	86.992049	511.529584	247.540185	-113.738711	527.373299	314.507488	63.173695	135.792748	101.631457	-153.339043	241.665226	81.381299	56.866825	96.915339	60.471094	-152.479002	226.996467	34.609848	59.804173	51.907290	257.030958	-167.604291	107.951803	163.084853	163.667414	1449.094515	280.714773	-169.923105	1434.850622	263.209788	250.479903	1207.454451	189.765864	-250.779844	1203.873851	134.375084	151.122365	1129.117028	376.865681	-215.500803	1054.399049	297.319793
1048	10.47000	13.151068	929.665925	178.776701	-8.400329	1472.102868	320.528311	-6.424570	1543.156299	471.853927	89.641945	932.130113	179.880821	-63.339790	927.201726	177.672625	86.612275	509.153216	243.150290	-112.243419	527.174225	321.932502	63.278185	140.066449	87.597241	-149.832715	237.786372	95.105960	56.956184	103.019103	45.679829	-149.031341	221.845883	48.928813	59.780244	51.256293	237.428112	-163.217790	107.744113	180.463769	161.864790	1447.731400	283.249067	-172.104045	1433.791701	262.346720	249.931799	1204.041038	195.141162	-253.269225	1203.624326	130.492525	147.771268	1127.764735	383.502313	-221.881469	1049.503309	292.577649
1049	10.48000	11.954186	928.630280	179.580247	-10.968074	1471.051022	321.529273	-10.299380	1542.157380	473.006412	88.508421	931.140471	180.744700	-64.600081	926.120081	178.415852	86.232501	506.776847	238.760396	-110.748126	526.975151	329.357515	63.382674	144.340150	73.563026	-146.326387	233.907517	108.830621	57.045543	109.122867	30.888563	-145.583680	216.695300	63.247778	59.756315	50.605296	217.825265	-158.831288	107.536423	197.842686	160.062167	1446.368286	285.783361	-174.284985	1432.732780	261.483652	249.383694	1200.627624	200.516460	-255.758606	1203.374800	126.609966	144.420172	1126.412442	390.138945	-228.262135	1044.607570	287.835505
1050	10.49000	10.757305	927.594636	180.383793	-13.535818	1469.999175	322.530236	-14.174191	1541.158461	474.158897	87.374897	930.150829	181.608580	-65.860371	925.038435	179.159078	85.852727	504.400478	234.370502	-109.252834	526.776077	336.782529	63.487163	148.613852	59.528810	-142.820058	230.028663	122.555283	57.134903	115.226632	16.097297	-142.136019	211.544716	77.566743	59.732386	49.954299	198.222419	-154.444787	107.328733	215.221603	158.259544	1445.005171	288.317655	-176.465925	1431.673860	260.620583	248.835589	1197.214210	205.891758	-258.247986	1203.125274	122.727407	141.069076	1125.060150	396.775578	-234.642801	1039.711830	283.093362
1051	10.50000	9.560424	926.558992	181.187338	-16.103563	1468.947329	323.531198	-18.049001	1540.159543	475.311382	86.241373	929.161188	182.472459	-67.120662	923.956789	179.902305	85.472953	502.024110	229.980608	-107.757541	526.577003	344.207542	63.591652	152.887553	45.494595	-139.313730	226.149809	136.279944	57.224262	121.330396	1.306032	-138.688358	206.394132	91.885708	59.708457	49.303303	178.619573	-150.058285	107.121043	232.600520	156.456921	1443.642056	290.851949	-178.646865	1430.614939	259.757515	248.287484	1193.800797	211.267056	-260.737367	1202.875749	118.844849	137.717980	1123.707857	403.412210	-241.023466	1034.816090	278.351218
1052	10.51000	8.363543	925.523348	181.990884	-18.671308	1467.895482	324.532161	-21.923811	1539.160624	476.463868	85.107848	928.171546	183.336338	-68.380953	922.875144	180.645531	85.093179	499.647741	225.590713	-106.262249	526.377929	351.632555	63.696142	157.161254	31.460379	-135.807401	222.270954	150.004605	57.313621	127.434160	-13.485234	-135.240697	201.243549	106.204672	59.684528	48.652306	159.016727	-145.671784	106.913354	249.979436	154.654297	1442.278941	293.386243	-180.827805	1429.556018	258.894447	247.739379	1190.387383	216.642354	-263.226747	1202.626223	114.962290	134.366883	1122.355564	410.048842	-247.404132	1029.920350	273.609074
1053	10.52000	7.166661	924.487704	182.794430	-21.239052	1466.843636	325.533123	-25.798622	1538.161705	477.616353	83.974324	927.181905	184.200217	-69.641244	921.793498	181.388758	84.713405	497.271372	221.200819	-104.766956	526.178855	359.057569	63.800631	161.434956	17.426163	-132.301073	218.392100	163.729267	57.402980	133.537925	-28.276499	-131.793035	196.092965	120.523637	59.660599	48.001309	139.413881	-141.285282	106.705664	267.358353	152.851674	1440.915827	295.920537	-183.008745	1428.497098	258.031378	247.191274	1186.973969	222.017653	-265.716128	1202.376698	111.079731	131.015787	1121.003271	416.685474	-253.784798	1025.024611	268.866931
1054	10.53000	5.969780	923.452060	183.597976	-23.806797	1465.791789	326.534086	-29.673432	1537.162786	478.768838	82.840800	926.192263	185.064096	-70.901535	920.711852	182.131984	84.333631	494.895003	216.810925	-103.271664	525.979781	366.482582	63.905120	165.708657	3.391948	-128.794745	214.513246	177.453928	57.492339	139.641689	-43.067765	-128.345374	190.942381	134.842602	59.636670	47.350312	119.811034	-136.898780	106.497974	284.737270	151.049051	1439.552712	298.454831	-185.189685	1427.438177	257.168310	246.643169	1183.560556	227.392951	-268.205508	1202.127172	107.197172	127.664691	1119.650979	423.322107	-260.165464	1020.128871	264.124787
1055	10.54000	4.772899	922.416416	184.401522	-26.374542	1464.739943	327.535048	-33.548242	1536.163868	479.921323	81.707276	925.202622	185.927976	-72.161826	919.630206	182.875211	83.953858	492.518635	212.421030	-101.776371	525.780707	373.907595	64.009609	169.982358	-10.642268	-125.288416	210.634391	191.178589	57.581698	145.745453	-57.859030	-124.897713	185.791798	149.161567	59.612741	46.699316	100.208188	-132.512279	106.290284	302.116187	149.246428	1438.189597	300.989125	-187.370625	1426.379256	256.305242	246.095065	1180.147142	232.768249	-270.694889	1201.877646	103.314614	124.313595	1118.298686	429.958739	-266.546129	1015.233131	259.382644
1056	10.55000	3.576018	921.380772	185.205068	-28.942286	1463.688097	328.536011	-37.423053	1535.164949	481.073809	80.573752	924.212980	186.791855	-73.422117	918.548561	183.618438	83.574084	490.142266	208.031136	-100.281078	525.581633	381.332609	64.114099	174.256060	-24.676484	-121.782088	206.755537	204.903251	57.671058	151.849218	-72.650296	-121.450052	180.641214	163.480532	59.588811	46.048319	80.605342	-128.125777	106.082594	319.495103	147.443805	1436.826482	303.523419	-189.551565	1425.320336	255.442174	245.546960	1176.733729	238.143547	-273.184269	1201.628121	99.432055	120.962499	1116.946393	436.595371	-272.926795	1010.337391	254.640500
1057	10.56000	3.204664	921.358643	184.702172	-30.091624	1463.727130	328.222335	-39.210119	1535.170060	480.839745	80.267982	924.164392	186.331549	-73.858985	918.552889	183.072921	84.465441	490.402720	207.488746	-98.892943	525.467617	382.530125	65.208416	178.757443	-33.354414	-118.962861	201.941116	212.134996	58.714674	157.640316	-82.104227	-118.745210	174.239400	171.143308	60.772427	46.484753	68.450689	-124.948379	105.043688	331.780246	146.537670	1436.957989	303.493724	-190.621079	1425.242114	254.543600	245.729586	1177.472761	237.619614	-274.391246	1201.463986	98.114945	121.550392	1116.544725	435.471562	-275.297004	1009.025269	253.319955
